<?xml version="1.0" standalone="no"?>
<!DOCTYPE svg PUBLIC "-//W3C//DTD SVG 20010904//EN"
 "http://www.w3.org/TR/2001/REC-SVG-20010904/DTD/svg10.dtd">
<svg version="1.0" xmlns="http://www.w3.org/2000/svg"
 width="64px" height="50px" viewBox="0 0 1101.000000 1024.000000"
 preserveAspectRatio="xMidYMid meet">

<g transform="translate(0.000000,1024.000000) scale(0.100000,-0.100000)"
fill="#000000" stroke="none">
<path d="M6126 9688 c-22 -31 -20 -52 7 -85 49 -58 798 -1034 897 -1168 123
-166 150 -230 158 -370 7 -128 -15 -223 -83 -363 -30 -62 -69 -133 -86 -158
-17 -25 -29 -47 -27 -49 1 -2 48 6 103 16 148 29 544 95 670 113 181 26 313
35 654 46 443 15 741 -1 1025 -56 108 -20 149 -34 236 -76 192 -95 324 -257
379 -468 10 -41 22 -93 26 -115 l7 -40 14 39 c42 117 39 342 -6 549 -22 100
-98 269 -173 386 -74 114 -242 279 -365 359 -251 164 -72 86 -3257 1408 -72
30 -138 54 -147 54 -9 0 -24 -10 -32 -22z"/>
<path d="M10371 7155 c1 -139 -35 -370 -78 -500 -78 -239 -177 -401 -352 -576
-249 -248 -541 -448 -867 -592 -179 -79 -207 -90 -344 -126 -213 -58 -380 -86
-576 -97 -141 -8 -190 3 -200 42 -9 36 29 88 343 463 150 179 271 326 269 328
-1 1 -135 -9 -297 -22 -294 -25 -527 -44 -1330 -110 -496 -41 -633 -43 -809
-15 -221 36 -261 51 -582 208 -142 69 -260 124 -263 121 -2 -3 -141 -371 -308
-819 l-302 -813 -290 -83 c-892 -255 -1534 -566 -2330 -1128 -160 -113 -331
-255 -517 -430 -300 -283 -442 -437 -567 -616 l-52 -74 103 -33 c57 -18 158
-49 225 -68 190 -54 371 -120 588 -212 273 -116 501 -228 531 -260 27 -29 31
-65 10 -82 -15 -12 -126 -34 -366 -70 -314 -48 -601 -125 -1065 -284 -99 -34
-220 -75 -269 -92 -81 -27 -120 -54 -104 -70 9 -9 2190 -167 2313 -167 354 -2
736 180 1021 487 130 140 230 274 292 393 59 113 142 324 172 438 22 86 57
328 66 465 l6 86 86 7 c390 31 1385 155 1657 207 655 124 1374 368 1980 672
560 280 979 516 1200 675 127 92 354 289 490 426 245 245 381 428 500 671 110
225 162 386 212 660 35 191 39 447 9 585 -38 178 -98 338 -180 480 l-26 45 1
-120z m-8035 -4034 c59 -27 111 -77 142 -135 22 -43 27 -64 27 -131 0 -67 -5
-88 -27 -131 -87 -166 -290 -202 -436 -79 -38 32 -80 115 -88 177 -17 124 66
262 183 304 55 19 150 17 199 -5z"/>
<path d="M10311 5009 l-183 -250 -251 -235 c-235 -221 -266 -245 -459 -375
-383 -256 -988 -572 -1703 -887 -116 -51 -748 -276 -889 -317 -163 -46 -333
-89 -433 -110 -218 -44 -881 -132 -1408 -187 l-309 -33 -27 -160 c-79 -482
-180 -702 -479 -1049 -125 -146 -293 -292 -483 -418 l-67 -46 326 -7 c360 -8
668 6 1384 65 380 32 539 55 856 125 837 186 1606 502 2336 961 718 451 1058
798 1423 1449 242 432 417 909 509 1391 27 139 51 322 44 329 -2 3 -86 -108
-187 -246z"/>
<path d="M9100 1610 c-319 -58 -934 -132 -1068 -129 l-77 1 -155 -80 c-261
-135 -527 -242 -790 -318 -85 -24 -211 -63 -279 -86 l-124 -42 76 -71 c141
-131 334 -256 642 -416 173 -89 272 -129 322 -129 23 0 66 38 248 221 380 381
780 721 1158 983 53 37 97 69 97 72 0 2 -1 3 -2 3 -2 -1 -23 -5 -48 -9z"/>
</g>
</svg>
