<?xml version="1.0" standalone="no"?>
<!DOCTYPE svg PUBLIC "-//W3C//DTD SVG 20010904//EN"
 "http://www.w3.org/TR/2001/REC-SVG-20010904/DTD/svg10.dtd">
<svg version="1.0" xmlns="http://www.w3.org/2000/svg"
 width="512.000000pt" height="512.000000pt" viewBox="0 0 512.000000 512.000000"
 preserveAspectRatio="xMidYMid meet">

<g transform="translate(0.000000,512.000000) scale(0.100000,-0.100000)"
fill="#000000" stroke="none">
<path d="M95 4998 c-65 -23 -107 -70 -90 -99 5 -7 17 -2 34 14 60 56 98 60
156 16 22 -16 64 -37 93 -45 68 -20 175 -109 192 -159 6 -19 16 -35 21 -35 16
0 85 -114 109 -182 35 -96 64 -149 114 -210 25 -31 45 -65 44 -75 -4 -29 104
-123 242 -210 69 -44 181 -116 250 -160 69 -44 148 -92 175 -106 28 -14 69
-39 93 -57 42 -30 43 -32 36 -75 -4 -33 -2 -55 10 -80 10 -20 16 -48 14 -63
-3 -26 -5 -27 -103 -39 -249 -29 -484 -104 -644 -205 -104 -65 -165 -123 -281
-263 -72 -87 -135 -152 -188 -193 -119 -92 -120 -93 -120 -212 0 -119 1 -120
120 -212 53 -41 116 -106 188 -193 116 -140 177 -198 281 -263 160 -101 395
-176 644 -205 98 -12 100 -13 103 -39 2 -15 -4 -43 -14 -63 -12 -25 -14 -47
-10 -80 7 -43 6 -45 -36 -75 -24 -18 -65 -43 -93 -57 -27 -14 -106 -62 -175
-106 -69 -44 -181 -116 -250 -160 -138 -87 -246 -181 -242 -210 1 -10 -19 -44
-44 -75 -50 -61 -79 -114 -114 -210 -24 -68 -93 -182 -109 -182 -5 0 -15 -16
-21 -35 -17 -50 -124 -139 -192 -159 -29 -8 -71 -29 -93 -45 -58 -44 -96 -40
-157 17 -24 22 -28 23 -34 9 -15 -41 59 -95 141 -105 57 -6 169 35 249 92 120
86 197 192 311 430 40 83 81 158 91 167 11 8 111 69 224 134 369 212 480 286
595 396 33 32 73 62 88 68 27 11 46 36 117 168 l40 71 62 6 c35 2 126 10 203
16 77 6 212 24 301 39 88 15 166 25 172 23 8 -2 12 -30 12 -77 0 -41 5 -77 10
-80 22 -13 7 -52 -47 -124 -69 -93 -240 -288 -291 -332 -113 -98 -113 -98
-101 -120 10 -19 6 -26 -34 -63 -26 -24 -49 -57 -57 -81 -32 -101 -138 -254
-240 -348 -106 -98 -272 -197 -358 -213 -44 -9 -97 16 -120 56 -21 37 -30 38
-38 4 -5 -20 0 -32 22 -56 16 -16 41 -36 56 -44 34 -18 111 -18 146 0 15 7 51
17 79 21 62 8 150 61 222 133 56 56 140 167 242 317 74 110 170 214 306 332
39 35 99 100 134 145 35 46 87 115 117 153 111 147 155 277 192 575 23 188 34
225 65 225 17 0 21 -9 26 -60 7 -77 19 -100 81 -156 l50 -46 3 -134 c7 -250
17 -312 54 -322 10 -2 32 -29 49 -60 39 -69 182 -220 282 -297 87 -68 110
-101 110 -160 l0 -42 35 31 c46 40 91 41 135 4 39 -32 52 -64 51 -127 l0 -49
28 27 c15 14 39 26 53 26 28 0 78 -44 78 -68 0 -12 5 -11 23 6 13 12 27 22 31
22 5 0 42 -31 82 -69 86 -81 227 -156 359 -191 110 -30 332 -39 428 -16 81 19
152 54 189 93 46 48 69 123 52 168 -5 12 -15 -1 -38 -46 -24 -48 -40 -68 -68
-82 -74 -37 -445 -52 -570 -23 -135 31 -281 116 -369 214 -24 27 -61 83 -83
125 -47 94 -87 134 -196 200 -97 58 -426 295 -461 333 l-23 25 26 48 c23 41
27 56 21 98 -8 68 20 193 50 221 12 11 62 37 112 57 109 44 164 78 280 175
146 122 156 126 245 95 89 -31 129 -14 167 74 42 96 96 138 208 161 87 18 187
7 313 -36 122 -42 187 -48 206 -21 19 25 19 409 0 434 -19 27 -84 21 -206 -21
-126 -43 -226 -54 -313 -36 -112 23 -166 65 -208 161 -38 88 -78 105 -167 74
-89 -31 -99 -27 -245 95 -108 90 -173 133 -251 164 -107 43 -129 54 -146 73
-26 28 -51 149 -44 212 4 47 1 62 -22 102 l-26 48 23 25 c36 38 364 276 462
334 103 62 154 115 199 206 77 156 253 287 448 332 125 29 496 14 570 -23 28
-14 44 -34 68 -82 23 -45 33 -58 38 -46 17 45 -6 120 -52 168 -37 39 -108 74
-189 93 -96 23 -318 14 -428 -16 -132 -35 -273 -110 -359 -191 -40 -38 -77
-69 -82 -69 -4 0 -18 10 -31 22 -18 17 -23 18 -23 6 0 -24 -50 -68 -78 -68
-14 0 -38 12 -53 26 l-28 27 0 -49 c1 -63 -12 -95 -51 -127 -44 -37 -89 -36
-135 4 l-35 31 0 -42 c0 -59 -23 -92 -110 -160 -100 -77 -243 -228 -282 -297
-17 -31 -39 -58 -49 -60 -37 -10 -49 -79 -54 -322 l-3 -134 -50 -46 c-62 -56
-74 -79 -81 -156 -5 -51 -9 -60 -26 -60 -31 0 -42 37 -65 225 -37 298 -81 428
-192 575 -30 39 -82 107 -117 153 -35 45 -95 110 -134 145 -136 118 -232 222
-306 332 -210 310 -336 433 -464 450 -28 4 -64 14 -79 21 -35 18 -112 18 -146
0 -15 -8 -40 -28 -56 -44 -22 -24 -27 -36 -22 -56 8 -34 17 -33 38 4 23 40 76
65 120 56 46 -8 165 -66 237 -116 157 -106 315 -301 361 -445 8 -24 31 -57 57
-81 40 -37 44 -44 34 -63 -12 -22 -12 -22 101 -120 51 -44 222 -239 291 -332
54 -72 69 -111 47 -124 -5 -3 -10 -39 -10 -80 0 -47 -4 -75 -12 -77 -6 -2 -84
8 -172 23 -89 15 -224 33 -301 39 -77 6 -168 14 -203 16 l-62 6 -40 71 c-71
132 -90 157 -117 168 -15 6 -55 36 -88 68 -115 110 -211 174 -560 376 -132 76
-248 145 -259 154 -10 9 -51 84 -91 167 -114 238 -191 344 -311 430 -107 76
-224 108 -299 82z"/>
</g>
</svg>
