<?xml version="1.0" standalone="no"?>
<!DOCTYPE svg PUBLIC "-//W3C//DTD SVG 20010904//EN"
 "http://www.w3.org/TR/2001/REC-SVG-20010904/DTD/svg10.dtd">
<svg version="1.0" xmlns="http://www.w3.org/2000/svg"
 width="70px" height="63px" viewBox="0 0 626.000000 626.000000"
 preserveAspectRatio="xMidYMid meet">

<g transform="translate(0.000000,626.000000) scale(0.100000,-0.100000)"
fill="#000000" stroke="none">
<path d="M3679 5684 c-60 -33 -85 -82 -75 -148 9 -55 27 -79 100 -131 61 -44
67 -60 42 -120 l-15 -35 -73 2 c-147 2 -228 -48 -228 -143 0 -63 19 -101 66
-130 56 -34 110 -29 180 17 l57 38 45 -49 44 -50 -6 -105 c-6 -111 -4 -116 55
-201 30 -42 32 -66 9 -89 -24 -24 -56 -23 -264 7 -140 20 -366 13 -477 -16
-82 -21 -211 -80 -280 -129 -108 -75 -237 -240 -408 -522 -52 -86 -97 -142
-127 -158 -30 -16 -31 -13 -75 158 -40 158 -110 314 -193 433 -99 142 -195
225 -303 263 -96 33 -153 -2 -272 -166 -29 -41 -58 -85 -64 -97 -16 -36 -28
-27 -21 15 3 21 1 57 -5 79 -31 114 -184 111 -221 -3 -15 -43 -8 -80 26 -152
20 -42 23 -57 13 -62 -19 -13 -39 0 -45 29 -18 81 -48 132 -94 156 -81 42
-170 -17 -170 -112 0 -56 30 -98 90 -124 51 -22 60 -35 38 -57 -24 -24 -64
-13 -106 28 -38 38 -44 40 -100 40 -50 0 -66 -4 -90 -25 -54 -45 -51 -143 7
-184 48 -35 89 -40 160 -20 35 10 68 16 72 13 5 -3 9 -20 9 -39 0 -36 -36 -75
-70 -75 -33 0 -87 -29 -117 -63 -97 -111 -3 -277 129 -231 24 8 52 23 63 32
25 22 55 67 55 85 0 7 17 30 38 50 69 68 94 45 103 -92 9 -148 41 -192 141
-193 82 -1 143 39 166 109 17 51 -8 123 -58 166 -22 19 -40 41 -40 49 0 15
175 147 213 161 24 9 33 -17 41 -123 8 -90 30 -177 96 -379 l40 -125 -42 -44
c-34 -34 -87 -65 -243 -142 -110 -54 -211 -101 -225 -105 -14 -4 -50 -20 -80
-35 -83 -43 -471 -227 -502 -239 -80 -30 -263 -185 -370 -313 -148 -178 -234
-343 -286 -548 -22 -88 -26 -128 -27 -250 0 -287 77 -508 252 -719 176 -212
323 -292 568 -312 141 -12 206 -8 317 17 94 22 128 53 128 118 0 74 -49 107
-133 90 -23 -4 -94 -8 -157 -8 -98 1 -127 5 -195 28 -179 60 -293 159 -374
321 -74 151 -95 262 -88 469 6 182 18 232 88 348 84 142 218 252 434 354 117
56 411 156 585 200 296 74 494 136 760 237 l65 25 65 -33 c150 -76 313 -115
476 -115 55 0 63 -3 79 -26 23 -36 21 -83 -6 -181 -28 -99 -45 -106 -85 -38
-14 25 -38 53 -52 64 -60 41 -140 31 -172 -22 -50 -82 5 -187 98 -187 33 0 65
-30 60 -57 -3 -15 -16 -19 -99 -23 -94 -5 -116 -12 -146 -49 -16 -18 -17 -77
-2 -119 22 -65 124 -80 192 -28 35 27 82 36 75 14 -3 -7 -25 -24 -49 -38 -94
-52 -119 -83 -119 -149 0 -33 7 -49 33 -77 67 -73 162 -39 220 80 23 47 32 57
50 54 20 -3 23 -11 29 -91 7 -90 20 -124 62 -159 73 -59 190 1 212 109 7 37
-13 80 -61 128 -42 42 -43 56 -7 94 l27 30 55 -14 c69 -19 153 -19 189 -1 34
18 51 54 51 109 0 105 -102 166 -207 122 -19 -8 -37 -15 -38 -15 -1 0 -14 26
-29 59 -38 86 -35 113 29 201 142 196 170 272 140 379 -20 68 -51 110 -127
168 -56 44 -294 168 -340 179 -35 7 -35 15 2 69 34 49 106 89 160 89 39 -1
112 -16 300 -64 112 -29 136 -32 225 -27 116 6 215 38 280 91 45 37 80 57 87
51 9 -10 -43 -280 -68 -349 -14 -39 -32 -94 -41 -123 l-15 -51 31 -46 c26 -37
47 -53 116 -86 47 -22 88 -40 92 -40 3 0 37 -14 75 -31 54 -26 68 -36 68 -54
0 -12 9 -34 20 -48 l21 -26 -36 -46 c-31 -41 -35 -54 -35 -104 0 -74 16 -91
89 -91 29 0 61 5 72 10 27 15 49 63 49 110 0 22 3 40 8 40 18 -1 40 -28 47
-60 18 -82 55 -120 120 -120 59 1 87 26 92 87 l5 49 58 -4 c49 -4 61 -1 79 17
27 27 35 61 27 116 -9 58 -27 75 -79 75 -23 0 -52 3 -63 6 -19 5 -21 9 -11 39
9 30 14 33 58 37 107 11 181 110 139 188 -17 33 -74 60 -124 60 -55 0 -89 -20
-106 -60 -14 -34 -37 -44 -75 -34 -26 7 -27 8 -19 53 4 25 8 77 9 114 0 60 -3
71 -24 88 -46 38 -146 14 -181 -44 -22 -35 -27 -115 -10 -147 16 -30 -5 -33
-39 -4 -60 51 -39 133 124 469 43 88 115 184 229 302 112 118 116 118 210 19
83 -85 110 -102 207 -120 63 -12 83 -11 173 4 55 10 125 27 154 39 28 11 73
30 100 40 245 100 654 427 757 606 39 68 40 72 40 165 -1 86 -4 101 -33 156
-28 56 -39 66 -109 107 -255 148 -539 212 -873 195 -224 -10 -405 -74 -510
-179 -35 -35 -53 -63 -64 -101 -20 -69 -74 -156 -109 -177 -26 -15 -30 -15
-65 4 -39 21 -69 63 -212 295 -41 68 -80 136 -87 154 -16 43 -16 91 1 105 12
10 22 6 53 -22 51 -45 75 -57 118 -57 69 0 135 57 135 117 0 38 -33 89 -72
113 -26 16 -48 20 -100 18 -38 -1 -72 2 -78 8 -5 5 -11 25 -12 44 l-3 34 71
11 c74 11 101 24 146 69 71 72 31 190 -69 203 -58 8 -136 -34 -163 -88 -16
-31 -26 -40 -42 -37 -37 5 -31 26 25 81 45 45 56 62 61 100 12 77 -32 136
-106 144 -58 6 -103 -23 -129 -83 -15 -33 -19 -56 -14 -84 10 -60 -1 -97 -35
-108 -46 -16 -71 19 -80 112 -9 93 -35 135 -105 171 -28 14 -55 25 -60 25 -6
0 -31 -12 -56 -26z"/>
</g>
</svg>
